# xmcd CD database file
#
# Track frame offsets:
#	150
#	24493
#	40907
#	62974
#	76736
#	94315
#
# Disc length: 1456 seconds
#
# Revision: 0
# Processed by: cddbd v1.5.2PL0 Copyright (c) Steve Scherf et al.
# Submitted via: CDex 1.51
#
DISCID=4405ae06
DTITLE=Leléka - Debut EP - A journey through old ukrainian fables
DYEAR=2017
DGENRE=Jazz
TTITLE0=Oj Tam Na Towchku
TTITLE1=Ishlo divcha luchkamy
TTITLE2=A gnaly hurale ovtse
TTITLE3=Plyve kacha
TTITLE4=Oj, V kolo
TTITLE5=Kolysanka
EXTD=YEAR: 2017
EXTT0=
EXTT1=
EXTT2=
EXTT3=
EXTT4=
EXTT5=
PLAYORDER=
